<svg xmlns="http://www.w3.org/2000/svg" xmlns:xlink="http://www.w3.org/1999/xlink" viewBox="0 0 418 853" width="256" height="512" preserveAspectRatio="xMidYMid meet" style="width: 100%; height: 100%; transform: translate3d(0px, 0px, 0px); content-visibility: visible;"><defs><clipPath id="__lottie_element_24"><rect width="418" height="853" x="0" y="0"></rect></clipPath></defs><g clip-path="url(#__lottie_element_24)"><g transform="matrix(1.333299994468689,0,0,1.333299994468689,0,0)" opacity="1" style="display: block;"><g opacity="1" transform="matrix(1,0,0,1,0,0)"><g opacity="1" transform="matrix(1,0,0,1,0,0)"><g opacity="1" transform="matrix(1,0,0,1,0,0)"><g opacity="1" transform="matrix(1,0,0,1,0,0)"><g opacity="1" transform="matrix(1,0,0,1,0,0)"><g opacity="1" transform="matrix(1,0,0,1,0,0)"><g opacity="1" transform="matrix(0.75,0,0,0.75,0,0)"><path stroke-linecap="butt" stroke-linejoin="miter" fill-opacity="0" stroke-miterlimit="4" stroke="rgb(239,247,122)" stroke-opacity="1" stroke-width="22" d=" M313.80999755859375,31.270000457763672 C44.95000076293945,192.57000732421875 48.77000045776367,499.2200012207031 158.41000366210938,590.5700073242188 C275.739990234375,688.3300170898438 354.79998779296875,559.5499877929688 302.989990234375,506.489990234375 C219.0800018310547,420.55999755859375 -1.940000057220459,624.1599731445312 204.9199981689453,792.5499877929688"></path></g></g></g><g opacity="1" transform="matrix(1,0,0,1,0,0)"><g opacity="1" transform="matrix(1,0,0,1,0,0)"><g opacity="1" transform="matrix(0.75,0,0,0.75,0,0)"><path stroke-linecap="butt" stroke-linejoin="miter" fill-opacity="0" stroke-miterlimit="4" stroke="rgb(239,247,122)" stroke-opacity="1" stroke-width="22" d=" M209.9600067138672,714.969970703125 C178.19000244140625,743.2000122070312 188.7100067138672,778.7899780273438 205.02000427246094,793.4600219726562 C195.89999389648438,785.75 181.30999755859375,779.9500122070312 165.4199981689453,780.0700073242188"></path></g></g></g></g></g></g></g></g></g></svg>